ISO-10303-21;
HEADER;
/* Generated by software containing ST-Developer
 * from STEP Tools, Inc. (www.steptools.com) 
 */
/* OPTION: using custom renumber hook */

FILE_DESCRIPTION(
/* description */ ('STEP AP242 Edition 2',
'CAx-IF Rec.Pracs.---Representation and Presentation of Product Manufa
cturing Information (PMI)---4.0---2014-10-13',
'CAx-IF Rec.Pracs.---3D Tessellated Geometry---0.4---2014-09-14','2;1',
'CAx-IF Rec.Pracs.---User Defined Attributes---1.5---2016-08-15'),
/* implementation_level */ '2;1');

FILE_NAME(
/* name */ 'Part Studio 1 - Part 1',
/* time_stamp */ '2026-06-12T13:30:33Z',
/* author */ (''),
/* organization */ (''),
/* preprocessor_version */ 'ST-DEVELOPER v20',
/* originating_system */ 'ONSHAPE BY PTC INC, 1.216',
/* authorisation */ '  ');

FILE_SCHEMA (('AP242_MANAGED_MODEL_BASED_3D_ENGINEERING_MIM_LF { 1 0 10303 442 3 1 4 }'));
ENDSEC;

DATA;
#10=SHAPE_REPRESENTATION_RELATIONSHIP('','',#816,#11);
#11=ADVANCED_BREP_SHAPE_REPRESENTATION('',(#814),#1362);
#12=B_SPLINE_CURVE_WITH_KNOTS('',3,(#1327,#1328,#1329,#1330,#1331),
 .UNSPECIFIED.,.F.,.F.,(4,1,4),(0.,0.00239095465883471,0.00478190931766942),
 .UNSPECIFIED.);
#13=B_SPLINE_CURVE_WITH_KNOTS('',3,(#1335,#1336,#1337,#1338,#1339),
 .UNSPECIFIED.,.F.,.F.,(4,1,4),(0.,0.00239096169284947,0.00478192338569894),
 .UNSPECIFIED.);
#14=ELLIPSE('',#823,0.000707106781186548,0.0005);
#15=ELLIPSE('',#827,0.000707106781186548,0.0005);
#16=ELLIPSE('',#888,0.00424264068711928,0.003);
#17=ELLIPSE('',#890,0.00424264068711928,0.003);
#18=CIRCLE('',#822,0.0005);
#19=CIRCLE('',#824,0.0005);
#20=CIRCLE('',#828,0.0005);
#21=CIRCLE('',#829,0.0005);
#22=CIRCLE('',#835,0.01);
#23=CIRCLE('',#836,0.01);
#24=CIRCLE('',#838,0.01);
#25=CIRCLE('',#839,0.01);
#26=CIRCLE('',#844,0.00275);
#27=CIRCLE('',#845,0.00275);
#28=CIRCLE('',#847,0.00275);
#29=CIRCLE('',#848,0.00275);
#30=CIRCLE('',#851,0.00275);
#31=CIRCLE('',#852,0.00275);
#32=CIRCLE('',#857,0.003);
#33=CIRCLE('',#858,0.003);
#34=CIRCLE('',#859,0.003);
#35=CIRCLE('',#860,0.003);
#36=CIRCLE('',#862,0.003);
#37=CIRCLE('',#863,0.003);
#38=CIRCLE('',#864,0.003);
#39=CIRCLE('',#865,0.003);
#40=CIRCLE('',#868,0.035);
#41=CIRCLE('',#869,0.0033);
#42=CIRCLE('',#870,0.0033);
#43=CIRCLE('',#871,0.0033);
#44=CIRCLE('',#872,0.0033);
#45=CIRCLE('',#874,0.0033);
#46=CIRCLE('',#876,0.0033);
#47=CIRCLE('',#878,0.0033);
#48=CIRCLE('',#880,0.035);
#49=CIRCLE('',#882,0.0033);
#50=CYLINDRICAL_SURFACE('',#821,0.0005);
#51=CYLINDRICAL_SURFACE('',#826,0.0005);
#52=CYLINDRICAL_SURFACE('',#831,0.0005);
#53=CYLINDRICAL_SURFACE('',#843,0.00275);
#54=CYLINDRICAL_SURFACE('',#846,0.00275);
#55=CYLINDRICAL_SURFACE('',#850,0.00275);
#56=CYLINDRICAL_SURFACE('',#873,0.0033);
#57=CYLINDRICAL_SURFACE('',#875,0.0033);
#58=CYLINDRICAL_SURFACE('',#877,0.0033);
#59=CYLINDRICAL_SURFACE('',#879,0.035);
#60=CYLINDRICAL_SURFACE('',#881,0.0033);
#61=CYLINDRICAL_SURFACE('',#885,0.01);
#62=CYLINDRICAL_SURFACE('',#886,0.01);
#63=CYLINDRICAL_SURFACE('',#887,0.003);
#64=CYLINDRICAL_SURFACE('',#889,0.003);
#65=CYLINDRICAL_SURFACE('',#891,0.003);
#66=CYLINDRICAL_SURFACE('',#892,0.003);
#67=CYLINDRICAL_SURFACE('',#893,0.003);
#68=CYLINDRICAL_SURFACE('',#894,0.003);
#69=CYLINDRICAL_SURFACE('',#895,0.003);
#70=ORIENTED_EDGE('',*,*,#288,.F.);
#71=ORIENTED_EDGE('',*,*,#289,.F.);
#72=ORIENTED_EDGE('',*,*,#290,.F.);
#73=ORIENTED_EDGE('',*,*,#291,.T.);
#74=ORIENTED_EDGE('',*,*,#292,.F.);
#75=ORIENTED_EDGE('',*,*,#293,.T.);
#76=ORIENTED_EDGE('',*,*,#294,.F.);
#77=ORIENTED_EDGE('',*,*,#295,.T.);
#78=ORIENTED_EDGE('',*,*,#296,.T.);
#79=ORIENTED_EDGE('',*,*,#297,.T.);
#80=ORIENTED_EDGE('',*,*,#298,.F.);
#81=ORIENTED_EDGE('',*,*,#299,.T.);
#82=ORIENTED_EDGE('',*,*,#293,.F.);
#83=ORIENTED_EDGE('',*,*,#300,.T.);
#84=ORIENTED_EDGE('',*,*,#301,.F.);
#85=ORIENTED_EDGE('',*,*,#302,.F.);
#86=ORIENTED_EDGE('',*,*,#303,.T.);
#87=ORIENTED_EDGE('',*,*,#298,.T.);
#88=ORIENTED_EDGE('',*,*,#304,.T.);
#89=ORIENTED_EDGE('',*,*,#295,.F.);
#90=ORIENTED_EDGE('',*,*,#305,.T.);
#91=ORIENTED_EDGE('',*,*,#306,.F.);
#92=ORIENTED_EDGE('',*,*,#307,.T.);
#93=ORIENTED_EDGE('',*,*,#291,.F.);
#94=ORIENTED_EDGE('',*,*,#308,.T.);
#95=ORIENTED_EDGE('',*,*,#309,.F.);
#96=ORIENTED_EDGE('',*,*,#310,.F.);
#97=ORIENTED_EDGE('',*,*,#296,.F.);
#98=ORIENTED_EDGE('',*,*,#311,.F.);
#99=ORIENTED_EDGE('',*,*,#289,.T.);
#100=ORIENTED_EDGE('',*,*,#301,.T.);
#101=ORIENTED_EDGE('',*,*,#312,.T.);
#102=ORIENTED_EDGE('',*,*,#306,.T.);
#103=ORIENTED_EDGE('',*,*,#313,.F.);
#104=ORIENTED_EDGE('',*,*,#314,.F.);
#105=ORIENTED_EDGE('',*,*,#315,.T.);
#106=ORIENTED_EDGE('',*,*,#316,.T.);
#107=ORIENTED_EDGE('',*,*,#317,.F.);
#108=ORIENTED_EDGE('',*,*,#318,.F.);
#109=ORIENTED_EDGE('',*,*,#319,.T.);
#110=ORIENTED_EDGE('',*,*,#320,.T.);
#111=ORIENTED_EDGE('',*,*,#317,.T.);
#112=ORIENTED_EDGE('',*,*,#321,.F.);
#113=ORIENTED_EDGE('',*,*,#322,.T.);
#114=ORIENTED_EDGE('',*,*,#314,.T.);
#115=ORIENTED_EDGE('',*,*,#320,.F.);
#116=ORIENTED_EDGE('',*,*,#323,.T.);
#117=ORIENTED_EDGE('',*,*,#324,.T.);
#118=ORIENTED_EDGE('',*,*,#325,.T.);
#119=ORIENTED_EDGE('',*,*,#326,.F.);
#120=ORIENTED_EDGE('',*,*,#327,.T.);
#121=ORIENTED_EDGE('',*,*,#328,.T.);
#122=ORIENTED_EDGE('',*,*,#329,.T.);
#123=ORIENTED_EDGE('',*,*,#330,.F.);
#124=ORIENTED_EDGE('',*,*,#331,.T.);
#125=ORIENTED_EDGE('',*,*,#332,.F.);
#126=ORIENTED_EDGE('',*,*,#333,.F.);
#127=ORIENTED_EDGE('',*,*,#334,.T.);
#128=ORIENTED_EDGE('',*,*,#335,.T.);
#129=ORIENTED_EDGE('',*,*,#336,.T.);
#130=ORIENTED_EDGE('',*,*,#337,.F.);
#131=ORIENTED_EDGE('',*,*,#318,.T.);
#132=ORIENTED_EDGE('',*,*,#316,.F.);
#133=ORIENTED_EDGE('',*,*,#338,.T.);
#134=ORIENTED_EDGE('',*,*,#339,.T.);
#135=ORIENTED_EDGE('',*,*,#340,.T.);
#136=ORIENTED_EDGE('',*,*,#341,.T.);
#137=ORIENTED_EDGE('',*,*,#342,.T.);
#138=ORIENTED_EDGE('',*,*,#343,.T.);
#139=ORIENTED_EDGE('',*,*,#344,.F.);
#140=ORIENTED_EDGE('',*,*,#324,.F.);
#141=ORIENTED_EDGE('',*,*,#345,.T.);
#142=ORIENTED_EDGE('',*,*,#302,.T.);
#143=ORIENTED_EDGE('',*,*,#346,.T.);
#144=ORIENTED_EDGE('',*,*,#347,.T.);
#145=ORIENTED_EDGE('',*,*,#348,.T.);
#146=ORIENTED_EDGE('',*,*,#349,.F.);
#147=ORIENTED_EDGE('',*,*,#350,.T.);
#148=ORIENTED_EDGE('',*,*,#351,.T.);
#149=ORIENTED_EDGE('',*,*,#352,.T.);
#150=ORIENTED_EDGE('',*,*,#353,.F.);
#151=ORIENTED_EDGE('',*,*,#354,.T.);
#152=ORIENTED_EDGE('',*,*,#355,.F.);
#153=ORIENTED_EDGE('',*,*,#356,.T.);
#154=ORIENTED_EDGE('',*,*,#357,.F.);
#155=ORIENTED_EDGE('',*,*,#358,.T.);
#156=ORIENTED_EDGE('',*,*,#359,.F.);
#157=ORIENTED_EDGE('',*,*,#360,.T.);
#158=ORIENTED_EDGE('',*,*,#361,.T.);
#159=ORIENTED_EDGE('',*,*,#362,.T.);
#160=ORIENTED_EDGE('',*,*,#363,.F.);
#161=ORIENTED_EDGE('',*,*,#364,.T.);
#162=ORIENTED_EDGE('',*,*,#344,.T.);
#163=ORIENTED_EDGE('',*,*,#365,.T.);
#164=ORIENTED_EDGE('',*,*,#328,.F.);
#165=ORIENTED_EDGE('',*,*,#366,.F.);
#166=ORIENTED_EDGE('',*,*,#367,.F.);
#167=ORIENTED_EDGE('',*,*,#326,.T.);
#168=ORIENTED_EDGE('',*,*,#368,.F.);
#169=ORIENTED_EDGE('',*,*,#309,.T.);
#170=ORIENTED_EDGE('',*,*,#346,.F.);
#171=ORIENTED_EDGE('',*,*,#313,.T.);
#172=ORIENTED_EDGE('',*,*,#368,.T.);
#173=ORIENTED_EDGE('',*,*,#325,.F.);
#174=ORIENTED_EDGE('',*,*,#361,.F.);
#175=ORIENTED_EDGE('',*,*,#369,.T.);
#176=ORIENTED_EDGE('',*,*,#347,.F.);
#177=ORIENTED_EDGE('',*,*,#370,.T.);
#178=ORIENTED_EDGE('',*,*,#333,.T.);
#179=ORIENTED_EDGE('',*,*,#366,.T.);
#180=ORIENTED_EDGE('',*,*,#327,.F.);
#181=ORIENTED_EDGE('',*,*,#367,.T.);
#182=ORIENTED_EDGE('',*,*,#308,.F.);
#183=ORIENTED_EDGE('',*,*,#290,.T.);
#184=ORIENTED_EDGE('',*,*,#311,.T.);
#185=ORIENTED_EDGE('',*,*,#299,.F.);
#186=ORIENTED_EDGE('',*,*,#305,.F.);
#187=ORIENTED_EDGE('',*,*,#294,.T.);
#188=ORIENTED_EDGE('',*,*,#303,.F.);
#189=ORIENTED_EDGE('',*,*,#345,.F.);
#190=ORIENTED_EDGE('',*,*,#323,.F.);
#191=ORIENTED_EDGE('',*,*,#319,.F.);
#192=ORIENTED_EDGE('',*,*,#337,.T.);
#193=ORIENTED_EDGE('',*,*,#371,.T.);
#194=ORIENTED_EDGE('',*,*,#353,.T.);
#195=ORIENTED_EDGE('',*,*,#372,.T.);
#196=ORIENTED_EDGE('',*,*,#356,.F.);
#197=ORIENTED_EDGE('',*,*,#358,.F.);
#198=ORIENTED_EDGE('',*,*,#364,.F.);
#199=ORIENTED_EDGE('',*,*,#349,.T.);
#200=ORIENTED_EDGE('',*,*,#373,.T.);
#201=ORIENTED_EDGE('',*,*,#359,.T.);
#202=ORIENTED_EDGE('',*,*,#374,.T.);
#203=ORIENTED_EDGE('',*,*,#351,.F.);
#204=ORIENTED_EDGE('',*,*,#375,.T.);
#205=ORIENTED_EDGE('',*,*,#335,.F.);
#206=ORIENTED_EDGE('',*,*,#376,.T.);
#207=ORIENTED_EDGE('',*,*,#357,.T.);
#208=ORIENTED_EDGE('',*,*,#355,.T.);
#209=ORIENTED_EDGE('',*,*,#363,.T.);
#210=ORIENTED_EDGE('',*,*,#342,.F.);
#211=ORIENTED_EDGE('',*,*,#377,.T.);
#212=ORIENTED_EDGE('',*,*,#330,.T.);
#213=ORIENTED_EDGE('',*,*,#378,.T.);
#214=ORIENTED_EDGE('',*,*,#332,.T.);
#215=ORIENTED_EDGE('',*,*,#379,.T.);
#216=ORIENTED_EDGE('',*,*,#340,.F.);
#217=ORIENTED_EDGE('',*,*,#380,.T.);
#218=ORIENTED_EDGE('',*,*,#381,.F.);
#219=ORIENTED_EDGE('',*,*,#382,.F.);
#220=ORIENTED_EDGE('',*,*,#383,.F.);
#221=ORIENTED_EDGE('',*,*,#384,.F.);
#222=ORIENTED_EDGE('',*,*,#385,.F.);
#223=ORIENTED_EDGE('',*,*,#383,.T.);
#224=ORIENTED_EDGE('',*,*,#386,.F.);
#225=ORIENTED_EDGE('',*,*,#382,.T.);
#226=ORIENTED_EDGE('',*,*,#387,.F.);
#227=ORIENTED_EDGE('',*,*,#381,.T.);
#228=ORIENTED_EDGE('',*,*,#339,.F.);
#229=ORIENTED_EDGE('',*,*,#388,.T.);
#230=ORIENTED_EDGE('',*,*,#389,.T.);
#231=ORIENTED_EDGE('',*,*,#390,.T.);
#232=ORIENTED_EDGE('',*,*,#321,.T.);
#233=ORIENTED_EDGE('',*,*,#380,.F.);
#234=ORIENTED_EDGE('',*,*,#391,.F.);
#235=ORIENTED_EDGE('',*,*,#384,.T.);
#236=ORIENTED_EDGE('',*,*,#392,.T.);
#237=ORIENTED_EDGE('',*,*,#393,.T.);
#238=ORIENTED_EDGE('',*,*,#389,.F.);
#239=ORIENTED_EDGE('',*,*,#394,.T.);
#240=ORIENTED_EDGE('',*,*,#387,.T.);
#241=ORIENTED_EDGE('',*,*,#386,.T.);
#242=ORIENTED_EDGE('',*,*,#385,.T.);
#243=ORIENTED_EDGE('',*,*,#391,.T.);
#244=ORIENTED_EDGE('',*,*,#297,.F.);
#245=ORIENTED_EDGE('',*,*,#310,.T.);
#246=ORIENTED_EDGE('',*,*,#288,.T.);
#247=ORIENTED_EDGE('',*,*,#307,.F.);
#248=ORIENTED_EDGE('',*,*,#312,.F.);
#249=ORIENTED_EDGE('',*,*,#300,.F.);
#250=ORIENTED_EDGE('',*,*,#292,.T.);
#251=ORIENTED_EDGE('',*,*,#304,.F.);
#252=ORIENTED_EDGE('',*,*,#329,.F.);
#253=ORIENTED_EDGE('',*,*,#365,.F.);
#254=ORIENTED_EDGE('',*,*,#343,.F.);
#255=ORIENTED_EDGE('',*,*,#378,.F.);
#256=ORIENTED_EDGE('',*,*,#331,.F.);
#257=ORIENTED_EDGE('',*,*,#377,.F.);
#258=ORIENTED_EDGE('',*,*,#341,.F.);
#259=ORIENTED_EDGE('',*,*,#379,.F.);
#260=ORIENTED_EDGE('',*,*,#388,.F.);
#261=ORIENTED_EDGE('',*,*,#338,.F.);
#262=ORIENTED_EDGE('',*,*,#395,.F.);
#263=ORIENTED_EDGE('',*,*,#394,.F.);
#264=ORIENTED_EDGE('',*,*,#395,.T.);
#265=ORIENTED_EDGE('',*,*,#315,.F.);
#266=ORIENTED_EDGE('',*,*,#396,.F.);
#267=ORIENTED_EDGE('',*,*,#392,.F.);
#268=ORIENTED_EDGE('',*,*,#390,.F.);
#269=ORIENTED_EDGE('',*,*,#393,.F.);
#270=ORIENTED_EDGE('',*,*,#396,.T.);
#271=ORIENTED_EDGE('',*,*,#322,.F.);
#272=ORIENTED_EDGE('',*,*,#369,.F.);
#273=ORIENTED_EDGE('',*,*,#360,.F.);
#274=ORIENTED_EDGE('',*,*,#373,.F.);
#275=ORIENTED_EDGE('',*,*,#348,.F.);
#276=ORIENTED_EDGE('',*,*,#372,.F.);
#277=ORIENTED_EDGE('',*,*,#352,.F.);
#278=ORIENTED_EDGE('',*,*,#374,.F.);
#279=ORIENTED_EDGE('',*,*,#362,.F.);
#280=ORIENTED_EDGE('',*,*,#370,.F.);
#281=ORIENTED_EDGE('',*,*,#350,.F.);
#282=ORIENTED_EDGE('',*,*,#376,.F.);
#283=ORIENTED_EDGE('',*,*,#334,.F.);
#284=ORIENTED_EDGE('',*,*,#371,.F.);
#285=ORIENTED_EDGE('',*,*,#336,.F.);
#286=ORIENTED_EDGE('',*,*,#375,.F.);
#287=ORIENTED_EDGE('',*,*,#354,.F.);
#288=EDGE_CURVE('',#397,#398,#473,.T.);
#289=EDGE_CURVE('',#399,#397,#474,.T.);
#290=EDGE_CURVE('',#400,#399,#475,.T.);
#291=EDGE_CURVE('',#400,#398,#476,.T.);
#292=EDGE_CURVE('',#401,#402,#477,.T.);
#293=EDGE_CURVE('',#401,#403,#478,.F.);
#294=EDGE_CURVE('',#404,#403,#479,.T.);
#295=EDGE_CURVE('',#404,#402,#480,.T.);
#296=EDGE_CURVE('',#405,#406,#481,.T.);
#297=EDGE_CURVE('',#406,#407,#482,.T.);
#298=EDGE_CURVE('',#408,#407,#483,.T.);
#299=EDGE_CURVE('',#408,#405,#484,.T.);
#300=EDGE_CURVE('',#401,#409,#18,.F.);
#301=EDGE_CURVE('',#410,#409,#14,.F.);
#302=EDGE_CURVE('',#411,#410,#485,.T.);
#303=EDGE_CURVE('',#411,#403,#19,.F.);
#304=EDGE_CURVE('',#407,#402,#486,.T.);
#305=EDGE_CURVE('',#404,#408,#487,.T.);
#306=EDGE_CURVE('',#412,#413,#15,.T.);
#307=EDGE_CURVE('',#412,#398,#20,.F.);
#308=EDGE_CURVE('',#400,#414,#21,.F.);
#309=EDGE_CURVE('',#413,#414,#488,.F.);
#310=EDGE_CURVE('',#406,#397,#489,.T.);
#311=EDGE_CURVE('',#399,#405,#490,.T.);
#312=EDGE_CURVE('',#409,#412,#491,.F.);
#313=EDGE_CURVE('',#410,#413,#492,.T.);
#314=EDGE_CURVE('',#415,#416,#493,.T.);
#315=EDGE_CURVE('',#415,#417,#494,.T.);
#316=EDGE_CURVE('',#417,#418,#495,.T.);
#317=EDGE_CURVE('',#416,#418,#496,.T.);
#318=EDGE_CURVE('',#419,#418,#497,.T.);
#319=EDGE_CURVE('',#419,#420,#498,.T.);
#320=EDGE_CURVE('',#420,#416,#499,.T.);
#321=EDGE_CURVE('',#421,#422,#500,.T.);
#322=EDGE_CURVE('',#421,#415,#501,.T.);
#323=EDGE_CURVE('',#420,#423,#502,.T.);
#324=EDGE_CURVE('',#423,#424,#503,.T.);
#325=EDGE_CURVE('',#424,#425,#504,.T.);
#326=EDGE_CURVE('',#426,#425,#505,.T.);
#327=EDGE_CURVE('',#426,#427,#506,.T.);
#328=EDGE_CURVE('',#427,#428,#507,.T.);
#329=EDGE_CURVE('',#428,#429,#22,.T.);
#330=EDGE_CURVE('',#430,#429,#508,.T.);
#331=EDGE_CURVE('',#430,#431,#23,.T.);
#332=EDGE_CURVE('',#422,#431,#509,.T.);
#333=EDGE_CURVE('',#432,#433,#510,.T.);
#334=EDGE_CURVE('',#432,#434,#511,.T.);
#335=EDGE_CURVE('',#434,#435,#512,.T.);
#336=EDGE_CURVE('',#435,#436,#513,.F.);
#337=EDGE_CURVE('',#419,#436,#514,.T.);
#338=EDGE_CURVE('',#417,#437,#515,.F.);
#339=EDGE_CURVE('',#437,#438,#516,.T.);
#340=EDGE_CURVE('',#438,#439,#517,.T.);
#341=EDGE_CURVE('',#439,#440,#24,.F.);
#342=EDGE_CURVE('',#440,#441,#518,.T.);
#343=EDGE_CURVE('',#441,#442,#25,.F.);
#344=EDGE_CURVE('',#433,#442,#519,.T.);
#345=EDGE_CURVE('',#423,#411,#520,.T.);
#346=EDGE_CURVE('',#410,#424,#521,.T.);
#347=EDGE_CURVE('',#443,#444,#522,.T.);
#348=EDGE_CURVE('',#444,#445,#523,.T.);
#349=EDGE_CURVE('',#446,#445,#524,.T.);
#350=EDGE_CURVE('',#446,#443,#525,.F.);
#351=EDGE_CURVE('',#447,#448,#526,.T.);
#352=EDGE_CURVE('',#448,#449,#527,.F.);
#353=EDGE_CURVE('',#450,#449,#528,.T.);
#354=EDGE_CURVE('',#450,#447,#529,.T.);
#355=EDGE_CURVE('',#451,#451,#26,.T.);
#356=EDGE_CURVE('',#452,#452,#27,.T.);
#357=EDGE_CURVE('',#453,#453,#28,.T.);
#358=EDGE_CURVE('',#454,#454,#29,.T.);
#359=EDGE_CURVE('',#455,#456,#530,.T.);
#360=EDGE_CURVE('',#455,#457,#531,.F.);
#361=EDGE_CURVE('',#457,#458,#532,.T.);
#362=EDGE_CURVE('',#458,#456,#533,.T.);
#363=EDGE_CURVE('',#459,#459,#30,.T.);
#364=EDGE_CURVE('',#460,#460,#31,.T.);
#365=EDGE_CURVE('',#442,#428,#534,.F.);
#366=EDGE_CURVE('',#433,#427,#535,.T.);
#367=EDGE_CURVE('',#426,#414,#536,.T.);
#368=EDGE_CURVE('',#413,#425,#537,.T.);
#369=EDGE_CURVE('',#457,#444,#32,.T.);
#370=EDGE_CURVE('',#443,#432,#33,.F.);
#371=EDGE_CURVE('',#436,#450,#34,.F.);
#372=EDGE_CURVE('',#449,#458,#35,.T.);
#373=EDGE_CURVE('',#445,#455,#36,.F.);
#374=EDGE_CURVE('',#456,#448,#37,.F.);
#375=EDGE_CURVE('',#447,#435,#38,.T.);
#376=EDGE_CURVE('',#434,#446,#39,.T.);
#377=EDGE_CURVE('',#440,#430,#538,.F.);
#378=EDGE_CURVE('',#429,#441,#539,.T.);
#379=EDGE_CURVE('',#431,#439,#540,.T.);
#380=EDGE_CURVE('',#438,#422,#40,.T.);
#381=EDGE_CURVE('',#461,#461,#41,.T.);
#382=EDGE_CURVE('',#462,#462,#42,.T.);
#383=EDGE_CURVE('',#463,#463,#43,.T.);
#384=EDGE_CURVE('',#464,#464,#44,.T.);
#385=EDGE_CURVE('',#465,#465,#45,.T.);
#386=EDGE_CURVE('',#466,#466,#46,.T.);
#387=EDGE_CURVE('',#467,#467,#47,.T.);
#388=EDGE_CURVE('',#437,#468,#12,.T.);
#389=EDGE_CURVE('',#468,#469,#48,.T.);
#390=EDGE_CURVE('',#469,#421,#13,.T.);
#391=EDGE_CURVE('',#470,#470,#49,.T.);
#392=EDGE_CURVE('',#471,#472,#541,.F.);
#393=EDGE_CURVE('',#472,#469,#542,.F.);
#394=EDGE_CURVE('',#468,#471,#543,.T.);
#395=EDGE_CURVE('',#471,#417,#16,.T.);
#396=EDGE_CURVE('',#472,#415,#17,.T.);
#397=VERTEX_POINT('',#1128);
#398=VERTEX_POINT('',#1129);
#399=VERTEX_POINT('',#1131);
#400=VERTEX_POINT('',#1133);
#401=VERTEX_POINT('',#1137);
#402=VERTEX_POINT('',#1138);
#403=VERTEX_POINT('',#1140);
#404=VERTEX_POINT('',#1142);
#405=VERTEX_POINT('',#1146);
#406=VERTEX_POINT('',#1147);
#407=VERTEX_POINT('',#1149);
#408=VERTEX_POINT('',#1151);
#409=VERTEX_POINT('',#1155);
#410=VERTEX_POINT('',#1157);
#411=VERTEX_POINT('',#1159);
#412=VERTEX_POINT('',#1166);
#413=VERTEX_POINT('',#1167);
#414=VERTEX_POINT('',#1170);
#415=VERTEX_POINT('',#1180);
#416=VERTEX_POINT('',#1181);
#417=VERTEX_POINT('',#1183);
#418=VERTEX_POINT('',#1185);
#419=VERTEX_POINT('',#1189);
#420=VERTEX_POINT('',#1191);
#421=VERTEX_POINT('',#1195);
#422=VERTEX_POINT('',#1196);
#423=VERTEX_POINT('',#1199);
#424=VERTEX_POINT('',#1201);
#425=VERTEX_POINT('',#1203);
#426=VERTEX_POINT('',#1205);
#427=VERTEX_POINT('',#1207);
#428=VERTEX_POINT('',#1209);
#429=VERTEX_POINT('',#1211);
#430=VERTEX_POINT('',#1213);
#431=VERTEX_POINT('',#1215);
#432=VERTEX_POINT('',#1219);
#433=VERTEX_POINT('',#1220);
#434=VERTEX_POINT('',#1222);
#435=VERTEX_POINT('',#1224);
#436=VERTEX_POINT('',#1226);
#437=VERTEX_POINT('',#1229);
#438=VERTEX_POINT('',#1231);
#439=VERTEX_POINT('',#1233);
#440=VERTEX_POINT('',#1235);
#441=VERTEX_POINT('',#1237);
#442=VERTEX_POINT('',#1239);
#443=VERTEX_POINT('',#1246);
#444=VERTEX_POINT('',#1247);
#445=VERTEX_POINT('',#1249);
#446=VERTEX_POINT('',#1251);
#447=VERTEX_POINT('',#1255);
#448=VERTEX_POINT('',#1256);
#449=VERTEX_POINT('',#1258);
#450=VERTEX_POINT('',#1260);
#451=VERTEX_POINT('',#1264);
#452=VERTEX_POINT('',#1266);
#453=VERTEX_POINT('',#1269);
#454=VERTEX_POINT('',#1271);
#455=VERTEX_POINT('',#1274);
#456=VERTEX_POINT('',#1275);
#457=VERTEX_POINT('',#1277);
#458=VERTEX_POINT('',#1279);
#459=VERTEX_POINT('',#1283);
#460=VERTEX_POINT('',#1285);
#461=VERTEX_POINT('',#1310);
#462=VERTEX_POINT('',#1312);
#463=VERTEX_POINT('',#1314);
#464=VERTEX_POINT('',#1316);
#465=VERTEX_POINT('',#1319);
#466=VERTEX_POINT('',#1322);
#467=VERTEX_POINT('',#1325);
#468=VERTEX_POINT('',#1332);
#469=VERTEX_POINT('',#1334);
#470=VERTEX_POINT('',#1342);
#471=VERTEX_POINT('',#1345);
#472=VERTEX_POINT('',#1346);
#473=LINE('',#1127,#544);
#474=LINE('',#1130,#545);
#475=LINE('',#1132,#546);
#476=LINE('',#1134,#547);
#477=LINE('',#1136,#548);
#478=LINE('',#1139,#549);
#479=LINE('',#1141,#550);
#480=LINE('',#1143,#551);
#481=LINE('',#1145,#552);
#482=LINE('',#1148,#553);
#483=LINE('',#1150,#554);
#484=LINE('',#1152,#555);
#485=LINE('',#1158,#556);
#486=LINE('',#1162,#557);
#487=LINE('',#1163,#558);
#488=LINE('',#1171,#559);
#489=LINE('',#1173,#560);
#490=LINE('',#1174,#561);
#491=LINE('',#1176,#562);
#492=LINE('',#1177,#563);
#493=LINE('',#1179,#564);
#494=LINE('',#1182,#565);
#495=LINE('',#1184,#566);
#496=LINE('',#1186,#567);
#497=LINE('',#1188,#568);
#498=LINE('',#1190,#569);
#499=LINE('',#1192,#570);
#500=LINE('',#1194,#571);
#501=LINE('',#1197,#572);
#502=LINE('',#1198,#573);
#503=LINE('',#1200,#574);
#504=LINE('',#1202,#575);
#505=LINE('',#1204,#576);
#506=LINE('',#1206,#577);
#507=LINE('',#1208,#578);
#508=LINE('',#1212,#579);
#509=LINE('',#1216,#580);
#510=LINE('',#1218,#581);
#511=LINE('',#1221,#582);
#512=LINE('',#1223,#583);
#513=LINE('',#1225,#584);
#514=LINE('',#1227,#585);
#515=LINE('',#1228,#586);
#516=LINE('',#1230,#587);
#517=LINE('',#1232,#588);
#518=LINE('',#1236,#589);
#519=LINE('',#1240,#590);
#520=LINE('',#1242,#591);
#521=LINE('',#1243,#592);
#522=LINE('',#1245,#593);
#523=LINE('',#1248,#594);
#524=LINE('',#1250,#595);
#525=LINE('',#1252,#596);
#526=LINE('',#1254,#597);
#527=LINE('',#1257,#598);
#528=LINE('',#1259,#599);
#529=LINE('',#1261,#600);
#530=LINE('',#1273,#601);
#531=LINE('',#1276,#602);
#532=LINE('',#1278,#603);
#533=LINE('',#1280,#604);
#534=LINE('',#1287,#605);
#535=LINE('',#1288,#606);
#536=LINE('',#1290,#607);
#537=LINE('',#1291,#608);
#538=LINE('',#1304,#609);
#539=LINE('',#1305,#610);
#540=LINE('',#1307,#611);
#541=LINE('',#1344,#612);
#542=LINE('',#1347,#613);
#543=LINE('',#1348,#614);
#544=VECTOR('',#900,1.);
#545=VECTOR('',#901,1.);
#546=VECTOR('',#902,1.);
#547=VECTOR('',#903,1.);
#548=VECTOR('',#906,1.);
#549=VECTOR('',#907,1.);
#550=VECTOR('',#908,1.);
#551=VECTOR('',#909,1.);
#552=VECTOR('',#912,1.);
#553=VECTOR('',#913,1.);
#554=VECTOR('',#914,1.);
#555=VECTOR('',#915,1.);
#556=VECTOR('',#922,1.);
#557=VECTOR('',#927,1.);
#558=VECTOR('',#928,1.);
#559=VECTOR('',#937,1.);
#560=VECTOR('',#940,1.);
#561=VECTOR('',#941,1.);
#562=VECTOR('',#944,1.);
#563=VECTOR('',#945,1.);
#564=VECTOR('',#948,1.);
#565=VECTOR('',#949,1.);
#566=VECTOR('',#950,1.);
#567=VECTOR('',#951,1.);
#568=VECTOR('',#954,1.);
#569=VECTOR('',#955,1.);
#570=VECTOR('',#956,1.);
#571=VECTOR('',#959,1.);
#572=VECTOR('',#960,1.);
#573=VECTOR('',#961,1.);
#574=VECTOR('',#962,1.);
#575=VECTOR('',#963,1.);
#576=VECTOR('',#964,1.);
#577=VECTOR('',#965,1.);
#578=VECTOR('',#966,1.);
#579=VECTOR('',#969,1.);
#580=VECTOR('',#972,1.);
#581=VECTOR('',#975,1.);
#582=VECTOR('',#976,1.);
#583=VECTOR('',#977,1.);
#584=VECTOR('',#978,1.);
#585=VECTOR('',#979,1.);
#586=VECTOR('',#980,1.);
#587=VECTOR('',#981,1.);
#588=VECTOR('',#982,1.);
#589=VECTOR('',#985,1.);
#590=VECTOR('',#988,1.);
#591=VECTOR('',#991,1.);
#592=VECTOR('',#992,1.);
#593=VECTOR('',#995,1.);
#594=VECTOR('',#996,1.);
#595=VECTOR('',#997,1.);
#596=VECTOR('',#998,1.);
#597=VECTOR('',#1001,1.);
#598=VECTOR('',#1002,1.);
#599=VECTOR('',#1003,1.);
#600=VECTOR('',#1004,1.);
#601=VECTOR('',#1019,1.);
#602=VECTOR('',#1020,1.);
#603=VECTOR('',#1021,1.);
#604=VECTOR('',#1022,1.);
#605=VECTOR('',#1031,1.);
#606=VECTOR('',#1032,1.);
#607=VECTOR('',#1035,1.);
#608=VECTOR('',#1036,1.);
#609=VECTOR('',#1061,1.);
#610=VECTOR('',#1062,1.);
#611=VECTOR('',#1065,1.);
#612=VECTOR('',#1098,1.);
#613=VECTOR('',#1099,1.);
#614=VECTOR('',#1100,1.);
#615=EDGE_LOOP('',(#70,#71,#72,#73));
#616=EDGE_LOOP('',(#74,#75,#76,#77));
#617=EDGE_LOOP('',(#78,#79,#80,#81));
#618=EDGE_LOOP('',(#82,#83,#84,#85,#86));
#619=EDGE_LOOP('',(#87,#88,#89,#90));
#620=EDGE_LOOP('',(#91,#92,#93,#94,#95));
#621=EDGE_LOOP('',(#96,#97,#98,#99));
#622=EDGE_LOOP('',(#100,#101,#102,#103));
#623=EDGE_LOOP('',(#104,#105,#106,#107));
#624=EDGE_LOOP('',(#108,#109,#110,#111));
#625=EDGE_LOOP('',(#112,#113,#114,#115,#116,#117,#118,#119,#120,#121,#122,
#123,#124,#125));
#626=EDGE_LOOP('',(#126,#127,#128,#129,#130,#131,#132,#133,#134,#135,#136,
#137,#138,#139));
#627=EDGE_LOOP('',(#140,#141,#142,#143));
#628=EDGE_LOOP('',(#144,#145,#146,#147));
#629=EDGE_LOOP('',(#148,#149,#150,#151));
#630=EDGE_LOOP('',(#152));
#631=EDGE_LOOP('',(#153));
#632=EDGE_LOOP('',(#154));
#633=EDGE_LOOP('',(#155));
#634=EDGE_LOOP('',(#156,#157,#158,#159));
#635=EDGE_LOOP('',(#160));
#636=EDGE_LOOP('',(#161));
#637=EDGE_LOOP('',(#162,#163,#164,#165));
#638=EDGE_LOOP('',(#166,#167,#168,#169));
#639=EDGE_LOOP('',(#170,#171,#172,#173));
#640=EDGE_LOOP('',(#174,#175,#176,#177,#178,#179,#180,#181,#182,#183,#184,
#185,#186,#187,#188,#189,#190,#191,#192,#193,#194,#195));
#641=EDGE_LOOP('',(#196));
#642=EDGE_LOOP('',(#197));
#643=EDGE_LOOP('',(#198));
#644=EDGE_LOOP('',(#199,#200,#201,#202,#203,#204,#205,#206));
#645=EDGE_LOOP('',(#207));
#646=EDGE_LOOP('',(#208));
#647=EDGE_LOOP('',(#209));
#648=EDGE_LOOP('',(#210,#211,#212,#213));
#649=EDGE_LOOP('',(#214,#215,#216,#217));
#650=EDGE_LOOP('',(#218));
#651=EDGE_LOOP('',(#219));
#652=EDGE_LOOP('',(#220));
#653=EDGE_LOOP('',(#221));
#654=EDGE_LOOP('',(#222));
#655=EDGE_LOOP('',(#223));
#656=EDGE_LOOP('',(#224));
#657=EDGE_LOOP('',(#225));
#658=EDGE_LOOP('',(#226));
#659=EDGE_LOOP('',(#227));
#660=EDGE_LOOP('',(#228,#229,#230,#231,#232,#233));
#661=EDGE_LOOP('',(#234));
#662=EDGE_LOOP('',(#235));
#663=EDGE_LOOP('',(#236,#237,#238,#239));
#664=EDGE_LOOP('',(#240));
#665=EDGE_LOOP('',(#241));
#666=EDGE_LOOP('',(#242));
#667=EDGE_LOOP('',(#243));
#668=EDGE_LOOP('',(#244,#245,#246,#247,#248,#249,#250,#251));
#669=EDGE_LOOP('',(#252,#253,#254,#255));
#670=EDGE_LOOP('',(#256,#257,#258,#259));
#671=EDGE_LOOP('',(#260,#261,#262,#263));
#672=EDGE_LOOP('',(#264,#265,#266,#267));
#673=EDGE_LOOP('',(#268,#269,#270,#271));
#674=EDGE_LOOP('',(#272,#273,#274,#275));
#675=EDGE_LOOP('',(#276,#277,#278,#279));
#676=EDGE_LOOP('',(#280,#281,#282,#283));
#677=EDGE_LOOP('',(#284,#285,#286,#287));
#678=FACE_BOUND('',#615,.T.);
#679=FACE_BOUND('',#616,.T.);
#680=FACE_BOUND('',#617,.T.);
#681=FACE_BOUND('',#618,.T.);
#682=FACE_BOUND('',#619,.T.);
#683=FACE_BOUND('',#620,.T.);
#684=FACE_BOUND('',#621,.T.);
#685=FACE_BOUND('',#622,.T.);
#686=FACE_BOUND('',#623,.T.);
#687=FACE_BOUND('',#624,.T.);
#688=FACE_BOUND('',#625,.T.);
#689=FACE_BOUND('',#626,.T.);
#690=FACE_BOUND('',#627,.T.);
#691=FACE_BOUND('',#628,.T.);
#692=FACE_BOUND('',#629,.T.);
#693=FACE_BOUND('',#630,.T.);
#694=FACE_BOUND('',#631,.T.);
#695=FACE_BOUND('',#632,.T.);
#696=FACE_BOUND('',#633,.T.);
#697=FACE_BOUND('',#634,.T.);
#698=FACE_BOUND('',#635,.T.);
#699=FACE_BOUND('',#636,.T.);
#700=FACE_BOUND('',#637,.T.);
#701=FACE_BOUND('',#638,.T.);
#702=FACE_BOUND('',#639,.T.);
#703=FACE_BOUND('',#640,.T.);
#704=FACE_BOUND('',#641,.T.);
#705=FACE_BOUND('',#642,.T.);
#706=FACE_BOUND('',#643,.T.);
#707=FACE_BOUND('',#644,.T.);
#708=FACE_BOUND('',#645,.T.);
#709=FACE_BOUND('',#646,.T.);
#710=FACE_BOUND('',#647,.T.);
#711=FACE_BOUND('',#648,.T.);
#712=FACE_BOUND('',#649,.T.);
#713=FACE_BOUND('',#650,.T.);
#714=FACE_BOUND('',#651,.T.);
#715=FACE_BOUND('',#652,.T.);
#716=FACE_BOUND('',#653,.T.);
#717=FACE_BOUND('',#654,.T.);
#718=FACE_BOUND('',#655,.T.);
#719=FACE_BOUND('',#656,.T.);
#720=FACE_BOUND('',#657,.T.);
#721=FACE_BOUND('',#658,.T.);
#722=FACE_BOUND('',#659,.T.);
#723=FACE_BOUND('',#660,.T.);
#724=FACE_BOUND('',#661,.T.);
#725=FACE_BOUND('',#662,.T.);
#726=FACE_BOUND('',#663,.T.);
#727=FACE_BOUND('',#664,.T.);
#728=FACE_BOUND('',#665,.T.);
#729=FACE_BOUND('',#666,.T.);
#730=FACE_BOUND('',#667,.T.);
#731=FACE_BOUND('',#668,.T.);
#732=FACE_BOUND('',#669,.T.);
#733=FACE_BOUND('',#670,.T.);
#734=FACE_BOUND('',#671,.T.);
#735=FACE_BOUND('',#672,.T.);
#736=FACE_BOUND('',#673,.T.);
#737=FACE_BOUND('',#674,.T.);
#738=FACE_BOUND('',#675,.T.);
#739=FACE_BOUND('',#676,.T.);
#740=FACE_BOUND('',#677,.T.);
#741=PLANE('',#818);
#742=PLANE('',#819);
#743=PLANE('',#820);
#744=PLANE('',#825);
#745=PLANE('',#830);
#746=PLANE('',#832);
#747=PLANE('',#833);
#748=PLANE('',#834);
#749=PLANE('',#837);
#750=PLANE('',#840);
#751=PLANE('',#841);
#752=PLANE('',#842);
#753=PLANE('',#849);
#754=PLANE('',#853);
#755=PLANE('',#854);
#756=PLANE('',#855);
#757=PLANE('',#856);
#758=PLANE('',#861);
#759=PLANE('',#866);
#760=PLANE('',#867);
#761=PLANE('',#883);
#762=PLANE('',#884);
#763=ADVANCED_FACE('',(#678),#741,.F.);
#764=ADVANCED_FACE('',(#679),#742,.F.);
#765=ADVANCED_FACE('',(#680),#743,.T.);
#766=ADVANCED_FACE('',(#681),#50,.T.);
#767=ADVANCED_FACE('',(#682),#744,.T.);
#768=ADVANCED_FACE('',(#683),#51,.T.);
#769=ADVANCED_FACE('',(#684),#745,.F.);
#770=ADVANCED_FACE('',(#685),#52,.T.);
#771=ADVANCED_FACE('',(#686),#746,.T.);
#772=ADVANCED_FACE('',(#687),#747,.T.);
#773=ADVANCED_FACE('',(#688),#748,.T.);
#774=ADVANCED_FACE('',(#689),#749,.F.);
#775=ADVANCED_FACE('',(#690),#750,.T.);
#776=ADVANCED_FACE('',(#691),#751,.T.);
#777=ADVANCED_FACE('',(#692),#752,.F.);
#778=ADVANCED_FACE('',(#693,#694),#53,.F.);
#779=ADVANCED_FACE('',(#695,#696),#54,.F.);
#780=ADVANCED_FACE('',(#697),#753,.T.);
#781=ADVANCED_FACE('',(#698,#699),#55,.F.);
#782=ADVANCED_FACE('',(#700),#754,.F.);
#783=ADVANCED_FACE('',(#701),#755,.F.);
#784=ADVANCED_FACE('',(#702),#756,.T.);
#785=ADVANCED_FACE('',(#703,#704,#705,#706),#757,.T.);
#786=ADVANCED_FACE('',(#707,#708,#709,#710),#758,.F.);
#787=ADVANCED_FACE('',(#711),#759,.F.);
#788=ADVANCED_FACE('',(#712,#713,#714,#715,#716),#760,.T.);
#789=ADVANCED_FACE('',(#717,#718),#56,.F.);
#790=ADVANCED_FACE('',(#719,#720),#57,.F.);
#791=ADVANCED_FACE('',(#721,#722),#58,.F.);
#792=ADVANCED_FACE('',(#723),#59,.T.);
#793=ADVANCED_FACE('',(#724,#725),#60,.F.);
#794=ADVANCED_FACE('',(#726,#727,#728,#729,#730),#761,.F.);
#795=ADVANCED_FACE('',(#731),#762,.F.);
#796=ADVANCED_FACE('',(#732),#61,.T.);
#797=ADVANCED_FACE('',(#733),#62,.T.);
#798=ADVANCED_FACE('',(#734),#63,.F.);
#799=ADVANCED_FACE('',(#735),#64,.F.);
#800=ADVANCED_FACE('',(#736),#65,.F.);
#801=ADVANCED_FACE('',(#737),#66,.T.);
#802=ADVANCED_FACE('',(#738),#67,.T.);
#803=ADVANCED_FACE('',(#739),#68,.F.);
#804=ADVANCED_FACE('',(#740),#69,.F.);
#805=CLOSED_SHELL('',(#763,#764,#765,#766,#767,#768,#769,#770,#771,#772,
#773,#774,#775,#776,#777,#778,#779,#780,#781,#782,#783,#784,#785,#786,#787,
#788,#789,#790,#791,#792,#793,#794,#795,#796,#797,#798,#799,#800,#801,#802,
#803,#804));
#806=STYLED_ITEM('',(#807),#814);
#807=PRESENTATION_STYLE_ASSIGNMENT((#808));
#808=SURFACE_STYLE_USAGE(.BOTH.,#809);
#809=SURFACE_SIDE_STYLE('',(#810));
#810=SURFACE_STYLE_FILL_AREA(#811);
#811=FILL_AREA_STYLE('',(#812));
#812=FILL_AREA_STYLE_COLOUR('',#813);
#813=COLOUR_RGB('',0.615686274509804,0.811764705882353,0.929411764705882);
#814=MANIFOLD_SOLID_BREP('Part 1',#805);
#815=SHAPE_DEFINITION_REPRESENTATION(#1367,#816);
#816=SHAPE_REPRESENTATION('Part 1',(#817),#1362);
#817=AXIS2_PLACEMENT_3D('',#1125,#896,#897);
#818=AXIS2_PLACEMENT_3D('',#1126,#898,#899);
#819=AXIS2_PLACEMENT_3D('',#1135,#904,#905);
#820=AXIS2_PLACEMENT_3D('',#1144,#910,#911);
#821=AXIS2_PLACEMENT_3D('',#1153,#916,#917);
#822=AXIS2_PLACEMENT_3D('',#1154,#918,#919);
#823=AXIS2_PLACEMENT_3D('',#1156,#920,#921);
#824=AXIS2_PLACEMENT_3D('',#1160,#923,#924);
#825=AXIS2_PLACEMENT_3D('',#1161,#925,#926);
#826=AXIS2_PLACEMENT_3D('',#1164,#929,#930);
#827=AXIS2_PLACEMENT_3D('',#1165,#931,#932);
#828=AXIS2_PLACEMENT_3D('',#1168,#933,#934);
#829=AXIS2_PLACEMENT_3D('',#1169,#935,#936);
#830=AXIS2_PLACEMENT_3D('',#1172,#938,#939);
#831=AXIS2_PLACEMENT_3D('',#1175,#942,#943);
#832=AXIS2_PLACEMENT_3D('',#1178,#946,#947);
#833=AXIS2_PLACEMENT_3D('',#1187,#952,#953);
#834=AXIS2_PLACEMENT_3D('',#1193,#957,#958);
#835=AXIS2_PLACEMENT_3D('',#1210,#967,#968);
#836=AXIS2_PLACEMENT_3D('',#1214,#970,#971);
#837=AXIS2_PLACEMENT_3D('',#1217,#973,#974);
#838=AXIS2_PLACEMENT_3D('',#1234,#983,#984);
#839=AXIS2_PLACEMENT_3D('',#1238,#986,#987);
#840=AXIS2_PLACEMENT_3D('',#1241,#989,#990);
#841=AXIS2_PLACEMENT_3D('',#1244,#993,#994);
#842=AXIS2_PLACEMENT_3D('',#1253,#999,#1000);
#843=AXIS2_PLACEMENT_3D('',#1262,#1005,#1006);
#844=AXIS2_PLACEMENT_3D('',#1263,#1007,#1008);
#845=AXIS2_PLACEMENT_3D('',#1265,#1009,#1010);
#846=AXIS2_PLACEMENT_3D('',#1267,#1011,#1012);
#847=AXIS2_PLACEMENT_3D('',#1268,#1013,#1014);
#848=AXIS2_PLACEMENT_3D('',#1270,#1015,#1016);
#849=AXIS2_PLACEMENT_3D('',#1272,#1017,#1018);
#850=AXIS2_PLACEMENT_3D('',#1281,#1023,#1024);
#851=AXIS2_PLACEMENT_3D('',#1282,#1025,#1026);
#852=AXIS2_PLACEMENT_3D('',#1284,#1027,#1028);
#853=AXIS2_PLACEMENT_3D('',#1286,#1029,#1030);
#854=AXIS2_PLACEMENT_3D('',#1289,#1033,#1034);
#855=AXIS2_PLACEMENT_3D('',#1292,#1037,#1038);
#856=AXIS2_PLACEMENT_3D('',#1293,#1039,#1040);
#857=AXIS2_PLACEMENT_3D('',#1294,#1041,#1042);
#858=AXIS2_PLACEMENT_3D('',#1295,#1043,#1044);
#859=AXIS2_PLACEMENT_3D('',#1296,#1045,#1046);
#860=AXIS2_PLACEMENT_3D('',#1297,#1047,#1048);
#861=AXIS2_PLACEMENT_3D('',#1298,#1049,#1050);
#862=AXIS2_PLACEMENT_3D('',#1299,#1051,#1052);
#863=AXIS2_PLACEMENT_3D('',#1300,#1053,#1054);
#864=AXIS2_PLACEMENT_3D('',#1301,#1055,#1056);
#865=AXIS2_PLACEMENT_3D('',#1302,#1057,#1058);
#866=AXIS2_PLACEMENT_3D('',#1303,#1059,#1060);
#867=AXIS2_PLACEMENT_3D('',#1306,#1063,#1064);
#868=AXIS2_PLACEMENT_3D('',#1308,#1066,#1067);
#869=AXIS2_PLACEMENT_3D('',#1309,#1068,#1069);
#870=AXIS2_PLACEMENT_3D('',#1311,#1070,#1071);
#871=AXIS2_PLACEMENT_3D('',#1313,#1072,#1073);
#872=AXIS2_PLACEMENT_3D('',#1315,#1074,#1075);
#873=AXIS2_PLACEMENT_3D('',#1317,#1076,#1077);
#874=AXIS2_PLACEMENT_3D('',#1318,#1078,#1079);
#875=AXIS2_PLACEMENT_3D('',#1320,#1080,#1081);
#876=AXIS2_PLACEMENT_3D('',#1321,#1082,#1083);
#877=AXIS2_PLACEMENT_3D('',#1323,#1084,#1085);
#878=AXIS2_PLACEMENT_3D('',#1324,#1086,#1087);
#879=AXIS2_PLACEMENT_3D('',#1326,#1088,#1089);
#880=AXIS2_PLACEMENT_3D('',#1333,#1090,#1091);
#881=AXIS2_PLACEMENT_3D('',#1340,#1092,#1093);
#882=AXIS2_PLACEMENT_3D('',#1341,#1094,#1095);
#883=AXIS2_PLACEMENT_3D('',#1343,#1096,#1097);
#884=AXIS2_PLACEMENT_3D('',#1349,#1101,#1102);
#885=AXIS2_PLACEMENT_3D('',#1350,#1103,#1104);
#886=AXIS2_PLACEMENT_3D('',#1351,#1105,#1106);
#887=AXIS2_PLACEMENT_3D('',#1352,#1107,#1108);
#888=AXIS2_PLACEMENT_3D('',#1353,#1109,#1110);
#889=AXIS2_PLACEMENT_3D('',#1354,#1111,#1112);
#890=AXIS2_PLACEMENT_3D('',#1355,#1113,#1114);
#891=AXIS2_PLACEMENT_3D('',#1356,#1115,#1116);
#892=AXIS2_PLACEMENT_3D('',#1357,#1117,#1118);
#893=AXIS2_PLACEMENT_3D('',#1358,#1119,#1120);
#894=AXIS2_PLACEMENT_3D('',#1359,#1121,#1122);
#895=AXIS2_PLACEMENT_3D('',#1360,#1123,#1124);
#896=DIRECTION('',(0.,0.,1.));
#897=DIRECTION('',(1.,0.,0.));
#898=DIRECTION('',(0.,1.,0.));
#899=DIRECTION('',(1.,0.,0.));
#900=DIRECTION('',(1.,0.,-3.30423519233678E-16));
#901=DIRECTION('',(3.6665225383922E-16,0.,1.));
#902=DIRECTION('',(-1.,0.,6.42868111685523E-16));
#903=DIRECTION('',(0.,0.,1.));
#904=DIRECTION('',(0.,1.,0.));
#905=DIRECTION('',(1.,0.,0.));
#906=DIRECTION('',(1.,0.,-3.30423519233678E-16));
#907=DIRECTION('',(0.,0.,1.));
#908=DIRECTION('',(-1.,0.,6.42868111685523E-16));
#909=DIRECTION('',(3.6665225383922E-16,0.,1.));
#910=DIRECTION('',(0.,1.,0.));
#911=DIRECTION('',(1.,0.,0.));
#912=DIRECTION('',(3.6665225383922E-16,0.,1.));
#913=DIRECTION('',(1.,0.,-3.30423519233678E-16));
#914=DIRECTION('',(3.6665225383922E-16,0.,1.));
#915=DIRECTION('',(-1.,0.,6.42868111685523E-16));
#916=DIRECTION('',(0.,0.,-1.));
#917=DIRECTION('',(0.,1.,0.));
#918=DIRECTION('',(3.30423519233678E-16,0.,1.));
#919=DIRECTION('',(1.,0.,-3.30423519233678E-16));
#920=DIRECTION('',(0.707106781186548,0.,-0.707106781186548));
#921=DIRECTION('',(0.707106781186548,0.,0.707106781186548));
#922=DIRECTION('',(0.,0.,1.));
#923=DIRECTION('',(-6.42868111685523E-16,0.,-1.));
#924=DIRECTION('',(-1.,0.,6.42868111685523E-16));
#925=DIRECTION('',(-1.,0.,3.6665225383922E-16));
#926=DIRECTION('',(3.6665225383922E-16,0.,1.));
#927=DIRECTION('',(0.,1.,0.));
#928=DIRECTION('',(0.,-1.,0.));
#929=DIRECTION('',(0.,0.,1.));
#930=DIRECTION('',(0.,-1.,0.));
#931=DIRECTION('',(0.707106781186548,0.,0.707106781186548));
#932=DIRECTION('',(0.707106781186548,0.,-0.707106781186548));
#933=DIRECTION('',(3.30423519233678E-16,0.,1.));
#934=DIRECTION('',(1.,0.,-3.30423519233678E-16));
#935=DIRECTION('',(-6.42868111685523E-16,0.,-1.));
#936=DIRECTION('',(-1.,0.,6.42868111685523E-16));
#937=DIRECTION('',(0.,0.,1.));
#938=DIRECTION('',(-1.,0.,3.6665225383922E-16));
#939=DIRECTION('',(3.6665225383922E-16,0.,1.));
#940=DIRECTION('',(0.,1.,0.));
#941=DIRECTION('',(0.,-1.,0.));
#942=DIRECTION('',(1.,0.,0.));
#943=DIRECTION('',(0.,-1.,0.));
#944=DIRECTION('',(1.,0.,0.));
#945=DIRECTION('',(-1.,0.,0.));
#946=DIRECTION('',(-3.30423519233678E-16,0.,-1.));
#947=DIRECTION('',(-1.,0.,3.30423519233678E-16));
#948=DIRECTION('',(-1.,0.,3.30423519233678E-16));
#949=DIRECTION('',(0.,-1.,0.));
#950=DIRECTION('',(-1.,0.,3.30423519233678E-16));
#951=DIRECTION('',(0.,-1.,0.));
#952=DIRECTION('',(1.,0.,-3.30423519233678E-16));
#953=DIRECTION('',(-3.30423519233678E-16,0.,-1.));
#954=DIRECTION('',(3.30423519233678E-16,0.,1.));
#955=DIRECTION('',(0.,1.,0.));
#956=DIRECTION('',(3.30423519233678E-16,0.,1.));
#957=DIRECTION('',(0.,1.,0.));
#958=DIRECTION('',(1.,0.,0.));
#959=DIRECTION('',(1.,0.,-3.30423519233678E-16));
#960=DIRECTION('',(-3.30423519233678E-16,0.,-1.));
#961=DIRECTION('',(-1.,0.,6.42868111685523E-16));
#962=DIRECTION('',(0.,0.,1.));
#963=DIRECTION('',(-1.,0.,0.));
#964=DIRECTION('',(0.,0.,1.));
#965=DIRECTION('',(-1.,0.,6.42868111685523E-16));
#966=DIRECTION('',(3.30423519233678E-16,0.,1.));
#967=DIRECTION('',(0.,1.,0.));
#968=DIRECTION('',(1.,0.,0.));
#969=DIRECTION('',(-1.,0.,3.30423519233678E-16));
#970=DIRECTION('',(0.,1.,0.));
#971=DIRECTION('',(1.,0.,0.));
#972=DIRECTION('',(3.30423519233678E-16,0.,1.));
#973=DIRECTION('',(0.,1.,0.));
#974=DIRECTION('',(1.,0.,0.));
#975=DIRECTION('',(-1.,0.,6.42868111685523E-16));
#976=DIRECTION('',(6.42868111685523E-16,0.,1.));
#977=DIRECTION('',(1.,-1.22464679914735E-16,-6.42868111685523E-16));
#978=DIRECTION('',(6.42868111685523E-16,0.,1.));
#979=DIRECTION('',(-1.,0.,6.42868111685523E-16));
#980=DIRECTION('',(-3.30423519233678E-16,0.,-1.));
#981=DIRECTION('',(1.,0.,-3.30423519233678E-16));
#982=DIRECTION('',(3.30423519233678E-16,0.,1.));
#983=DIRECTION('',(0.,1.,0.));
#984=DIRECTION('',(1.,0.,0.));
#985=DIRECTION('',(-1.,0.,3.30423519233678E-16));
#986=DIRECTION('',(0.,1.,0.));
#987=DIRECTION('',(1.,0.,0.));
#988=DIRECTION('',(3.30423519233678E-16,0.,1.));
#989=DIRECTION('',(-1.,0.,0.));
#990=DIRECTION('',(0.,1.,0.));
#991=DIRECTION('',(0.,-1.,0.));
#992=DIRECTION('',(0.,1.,0.));
#993=DIRECTION('',(-1.,2.73903706733179E-16,6.42868111685523E-16));
#994=DIRECTION('',(6.42868111685523E-16,0.,1.));
#995=DIRECTION('',(-2.73903706733179E-16,-1.,1.76083958731223E-31));
#996=DIRECTION('',(6.42868111685523E-16,0.,1.));
#997=DIRECTION('',(-2.73903706733179E-16,-1.,1.76083958731223E-31));
#998=DIRECTION('',(6.42868111685523E-16,0.,1.));
#999=DIRECTION('',(-1.,0.,6.42868111685523E-16));
#1000=DIRECTION('',(6.42868111685523E-16,0.,1.));
#1001=DIRECTION('',(0.,-1.,0.));
#1002=DIRECTION('',(6.42868111685523E-16,-1.09476442525376E-47,1.));
#1003=DIRECTION('',(0.,-1.,0.));
#1004=DIRECTION('',(6.42868111685523E-16,0.,1.));
#1005=DIRECTION('',(6.42868111685523E-16,0.,1.));
#1006=DIRECTION('',(1.,0.,-6.42868111685523E-16));
#1007=DIRECTION('',(-6.42868111685523E-16,0.,-1.));
#1008=DIRECTION('',(-1.,0.,6.42868111685523E-16));
#1009=DIRECTION('',(-6.42868111685523E-16,0.,-1.));
#1010=DIRECTION('',(-1.,0.,6.42868111685523E-16));
#1011=DIRECTION('',(6.42868111685523E-16,0.,1.));
#1012=DIRECTION('',(1.,0.,-6.42868111685523E-16));
#1013=DIRECTION('',(-6.42868111685523E-16,0.,-1.));
#1014=DIRECTION('',(-1.,0.,6.42868111685523E-16));
#1015=DIRECTION('',(-6.42868111685523E-16,0.,-1.));
#1016=DIRECTION('',(-1.,0.,6.42868111685523E-16));
#1017=DIRECTION('',(-1.27553196763001E-16,-1.,8.19998827424821E-32));
#1018=DIRECTION('',(-1.,1.27553196763001E-16,0.));
#1019=DIRECTION('',(1.,-1.27553196763001E-16,-6.42868111685523E-16));
#1020=DIRECTION('',(6.42868111685523E-16,-1.09476442525376E-47,1.));
#1021=DIRECTION('',(1.,-1.27553196763001E-16,-6.42868111685523E-16));
#1022=DIRECTION('',(6.42868111685523E-16,-1.09476442525376E-47,1.));
#1023=DIRECTION('',(6.42868111685523E-16,0.,1.));
#1024=DIRECTION('',(1.,0.,-6.42868111685523E-16));
#1025=DIRECTION('',(-6.42868111685523E-16,0.,-1.));
#1026=DIRECTION('',(-1.,0.,6.42868111685523E-16));
#1027=DIRECTION('',(-6.42868111685523E-16,0.,-1.));
#1028=DIRECTION('',(-1.,0.,6.42868111685523E-16));
#1029=DIRECTION('',(1.,0.,-3.30423519233678E-16));
#1030=DIRECTION('',(-3.30423519233678E-16,0.,-1.));
#1031=DIRECTION('',(0.,-1.,0.));
#1032=DIRECTION('',(0.,1.,0.));
#1033=DIRECTION('',(-1.,0.,0.));
#1034=DIRECTION('',(0.,1.,0.));
#1035=DIRECTION('',(0.,-1.,0.));
#1036=DIRECTION('',(0.,1.,0.));
#1037=DIRECTION('',(0.,0.,-1.));
#1038=DIRECTION('',(0.,1.,0.));
#1039=DIRECTION('',(-6.42868111685523E-16,0.,-1.));
#1040=DIRECTION('',(-1.,0.,6.42868111685523E-16));
#1041=DIRECTION('',(-6.42868111685523E-16,0.,-1.));
#1042=DIRECTION('',(-1.,0.,6.42868111685523E-16));
#1043=DIRECTION('',(-6.42868111685523E-16,0.,-1.));
#1044=DIRECTION('',(-1.,0.,6.42868111685523E-16));
#1045=DIRECTION('',(-6.42868111685523E-16,0.,-1.));
#1046=DIRECTION('',(-1.,0.,6.42868111685523E-16));
#1047=DIRECTION('',(-6.42868111685523E-16,0.,-1.));
#1048=DIRECTION('',(-1.,0.,6.42868111685523E-16));
#1049=DIRECTION('',(-6.42868111685523E-16,0.,-1.));
#1050=DIRECTION('',(-1.,0.,6.42868111685523E-16));
#1051=DIRECTION('',(-6.42868111685523E-16,0.,-1.));
#1052=DIRECTION('',(-1.,0.,6.42868111685523E-16));
#1053=DIRECTION('',(-6.42868111685523E-16,0.,-1.));
#1054=DIRECTION('',(-1.,0.,6.42868111685523E-16));
#1055=DIRECTION('',(-6.42868111685523E-16,0.,-1.));
#1056=DIRECTION('',(-1.,0.,6.42868111685523E-16));
#1057=DIRECTION('',(-6.42868111685523E-16,0.,-1.));
#1058=DIRECTION('',(-1.,0.,6.42868111685523E-16));
#1059=DIRECTION('',(-3.30423519233678E-16,0.,-1.));
#1060=DIRECTION('',(-1.,0.,3.30423519233678E-16));
#1061=DIRECTION('',(0.,-1.,0.));
#1062=DIRECTION('',(0.,-1.,0.));
#1063=DIRECTION('',(1.,0.,-3.30423519233678E-16));
#1064=DIRECTION('',(-3.30423519233678E-16,0.,-1.));
#1065=DIRECTION('',(0.,-1.,0.));
#1066=DIRECTION('',(1.,0.,-3.30423519233678E-16));
#1067=DIRECTION('',(-3.30423519233678E-16,0.,-1.));
#1068=DIRECTION('',(1.,0.,-3.30423519233678E-16));
#1069=DIRECTION('',(-3.30423519233678E-16,0.,-1.));
#1070=DIRECTION('',(1.,0.,-3.30423519233678E-16));
#1071=DIRECTION('',(-3.30423519233678E-16,0.,-1.));
#1072=DIRECTION('',(1.,0.,-3.30423519233678E-16));
#1073=DIRECTION('',(-3.30423519233678E-16,0.,-1.));
#1074=DIRECTION('',(1.,0.,-3.30423519233678E-16));
#1075=DIRECTION('',(-3.30423519233678E-16,0.,-1.));
#1076=DIRECTION('',(1.,0.,-3.30423519233678E-16));
#1077=DIRECTION('',(-3.30423519233678E-16,0.,-1.));
#1078=DIRECTION('',(1.,0.,-3.30423519233678E-16));
#1079=DIRECTION('',(-3.30423519233678E-16,0.,-1.));
#1080=DIRECTION('',(1.,0.,-3.30423519233678E-16));
#1081=DIRECTION('',(-3.30423519233678E-16,0.,-1.));
#1082=DIRECTION('',(1.,0.,-3.30423519233678E-16));
#1083=DIRECTION('',(-3.30423519233678E-16,0.,-1.));
#1084=DIRECTION('',(1.,0.,-3.30423519233678E-16));
#1085=DIRECTION('',(-3.30423519233678E-16,0.,-1.));
#1086=DIRECTION('',(1.,0.,-3.30423519233678E-16));
#1087=DIRECTION('',(-3.30423519233678E-16,0.,-1.));
#1088=DIRECTION('',(1.,0.,-3.30423519233678E-16));
#1089=DIRECTION('',(-3.30423519233678E-16,0.,-1.));
#1090=DIRECTION('',(1.,0.,-3.30423519233678E-16));
#1091=DIRECTION('',(-3.30423519233678E-16,0.,-1.));
#1092=DIRECTION('',(1.,0.,-3.30423519233678E-16));
#1093=DIRECTION('',(-3.30423519233678E-16,0.,-1.));
#1094=DIRECTION('',(1.,0.,-3.30423519233678E-16));
#1095=DIRECTION('',(-3.30423519233678E-16,0.,-1.));
#1096=DIRECTION('',(1.,0.,-3.30423519233678E-16));
#1097=DIRECTION('',(-3.30423519233678E-16,0.,-1.));
#1098=DIRECTION('',(0.,-1.,0.));
#1099=DIRECTION('',(-3.30423519233678E-16,0.,-1.));
#1100=DIRECTION('',(-3.30423519233678E-16,0.,-1.));
#1101=DIRECTION('',(3.30423519233678E-16,0.,1.));
#1102=DIRECTION('',(1.,0.,-3.30423519233678E-16));
#1103=DIRECTION('',(0.,-1.,0.));
#1104=DIRECTION('',(-1.,0.,0.));
#1105=DIRECTION('',(0.,1.,0.));
#1106=DIRECTION('',(1.,0.,0.));
#1107=DIRECTION('',(3.30423519233678E-16,0.,1.));
#1108=DIRECTION('',(1.,0.,-3.30423519233678E-16));
#1109=DIRECTION('',(2.33644711113657E-16,-0.707106781186548,0.707106781186548));
#1110=DIRECTION('',(2.33644711113657E-16,0.707106781186548,0.707106781186548));
#1111=DIRECTION('',(0.,-1.,0.));
#1112=DIRECTION('',(-1.,0.,0.));
#1113=DIRECTION('',(-2.33644711113657E-16,-0.707106781186548,-0.707106781186548));
#1114=DIRECTION('',(2.33644711113657E-16,-0.707106781186548,0.707106781186548));
#1115=DIRECTION('',(-3.30423519233678E-16,0.,-1.));
#1116=DIRECTION('',(-1.,0.,3.30423519233678E-16));
#1117=DIRECTION('',(6.42868111685523E-16,-1.09476442525376E-47,1.));
#1118=DIRECTION('',(1.,0.,-6.42868111685523E-16));
#1119=DIRECTION('',(-6.42868111685523E-16,1.09476442525376E-47,-1.));
#1120=DIRECTION('',(-1.,0.,6.42868111685523E-16));
#1121=DIRECTION('',(6.42868111685523E-16,0.,1.));
#1122=DIRECTION('',(1.,0.,-6.42868111685523E-16));
#1123=DIRECTION('',(-6.42868111685523E-16,0.,-1.));
#1124=DIRECTION('',(-1.,0.,6.42868111685523E-16));
#1125=CARTESIAN_POINT('',(0.,0.,0.));
#1126=CARTESIAN_POINT('',(0.,0.0141,0.));
#1127=CARTESIAN_POINT('',(1.22256702116461E-17,0.0141,0.037));
#1128=CARTESIAN_POINT('',(-0.0806,0.0141,0.037));
#1129=CARTESIAN_POINT('',(-0.0801,0.0141,0.037));
#1130=CARTESIAN_POINT('',(-0.0806,0.0141,-6.93889390390723E-18));
#1131=CARTESIAN_POINT('',(-0.0806,0.0141,-0.005));
#1132=CARTESIAN_POINT('',(-3.21434055842764E-18,0.0141,-0.005));
#1133=CARTESIAN_POINT('',(-0.0801,0.0141,-0.005));
#1134=CARTESIAN_POINT('',(-0.0801,0.0141,0.));
#1135=CARTESIAN_POINT('',(0.,0.0141,0.));
#1136=CARTESIAN_POINT('',(1.22256702116461E-17,0.0141,0.037));
#1137=CARTESIAN_POINT('',(0.0801,0.0141,0.037));
#1138=CARTESIAN_POINT('',(0.0806,0.0141,0.037));
#1139=CARTESIAN_POINT('',(0.0801,0.0141,-0.03685));
#1140=CARTESIAN_POINT('',(0.0801,0.0141,-0.0050000000000001));
#1141=CARTESIAN_POINT('',(-3.21434055842764E-18,0.0141,-0.005));
#1142=CARTESIAN_POINT('',(0.0806,0.0141,-0.0050000000000001));
#1143=CARTESIAN_POINT('',(0.0806,0.0141,-6.93889390390723E-18));
#1144=CARTESIAN_POINT('',(0.,0.00551,0.));
#1145=CARTESIAN_POINT('',(-0.0806,0.00551,-6.93889390390723E-18));
#1146=CARTESIAN_POINT('',(-0.0806,0.00551,-0.005));
#1147=CARTESIAN_POINT('',(-0.0806,0.00551,0.037));
#1148=CARTESIAN_POINT('',(1.22256702116461E-17,0.00551,0.037));
#1149=CARTESIAN_POINT('',(0.0806,0.00551,0.037));
#1150=CARTESIAN_POINT('',(0.0806,0.00551,-6.93889390390723E-18));
#1151=CARTESIAN_POINT('',(0.0806,0.00551,-0.0050000000000001));
#1152=CARTESIAN_POINT('',(-3.21434055842764E-18,0.00551,-0.005));
#1153=CARTESIAN_POINT('',(0.0801,0.0146,0.));
#1154=CARTESIAN_POINT('',(0.0801,0.0146,0.037));
#1155=CARTESIAN_POINT('',(0.07975,0.0142429285785728,0.037));
#1156=CARTESIAN_POINT('',(0.0801,0.0146,0.03735));
#1157=CARTESIAN_POINT('',(0.0796,0.0146,0.03685));
#1158=CARTESIAN_POINT('',(0.0796,0.0146,0.03685));
#1159=CARTESIAN_POINT('',(0.0796,0.0146,-0.0050000000000001));
#1160=CARTESIAN_POINT('',(0.0801,0.0146,-0.0050000000000001));
#1161=CARTESIAN_POINT('',(0.0806,0.00551,-6.93889390390723E-18));
#1162=CARTESIAN_POINT('',(0.0806,0.00551,0.037));
#1163=CARTESIAN_POINT('',(0.0806,0.00551,-0.0050000000000001));
#1164=CARTESIAN_POINT('',(-0.0801,0.0146,0.));
#1165=CARTESIAN_POINT('',(-0.0801,0.0146,0.03735));
#1166=CARTESIAN_POINT('',(-0.07975,0.0142429285785728,0.037));
#1167=CARTESIAN_POINT('',(-0.0796,0.0146,0.03685));
#1168=CARTESIAN_POINT('',(-0.0801,0.0146,0.037));
#1169=CARTESIAN_POINT('',(-0.0801,0.0146,-0.005));
#1170=CARTESIAN_POINT('',(-0.0796,0.0146,-0.005));
#1171=CARTESIAN_POINT('',(-0.0796,0.0146,0.));
#1172=CARTESIAN_POINT('',(-0.0806,0.00551,-6.93889390390723E-18));
#1173=CARTESIAN_POINT('',(-0.0806,0.00551,0.037));
#1174=CARTESIAN_POINT('',(-0.0806,0.00551,-0.005));
#1175=CARTESIAN_POINT('',(0.,0.0146,0.03735));
#1176=CARTESIAN_POINT('',(-1.15648231731781E-19,0.0142429285785728,0.037));
#1177=CARTESIAN_POINT('',(-0.0796,0.0146,0.03685));
#1178=CARTESIAN_POINT('',(0.1595,0.0079,-2.82512108944794E-17));
#1179=CARTESIAN_POINT('',(0.1595,0.0158,-2.82512108944794E-17));
#1180=CARTESIAN_POINT('',(0.1465,0.0158,-2.39557051444416E-17));
#1181=CARTESIAN_POINT('',(0.0845,0.0158,-3.46944695195361E-18));
#1182=CARTESIAN_POINT('',(0.1465,0.0079,-2.39557051444416E-17));
#1183=CARTESIAN_POINT('',(0.1465,0.,-2.39557051444416E-17));
#1184=CARTESIAN_POINT('',(0.1595,0.,-2.82512108944794E-17));
#1185=CARTESIAN_POINT('',(0.0845,0.,-3.46944695195361E-18));
#1186=CARTESIAN_POINT('',(0.0845,0.0079,-3.46944695195361E-18));
#1187=CARTESIAN_POINT('',(0.0845,0.0158,0.));
#1188=CARTESIAN_POINT('',(0.0845,0.,0.));
#1189=CARTESIAN_POINT('',(0.0845,0.,-0.0050000000000001));
#1190=CARTESIAN_POINT('',(0.0845,0.0158,-0.0050000000000001));
#1191=CARTESIAN_POINT('',(0.0845,0.0158,-0.0050000000000001));
#1192=CARTESIAN_POINT('',(0.0845,0.0158,0.));
#1193=CARTESIAN_POINT('',(0.,0.0158,0.));
#1194=CARTESIAN_POINT('',(0.1495,0.0158,0.0340967740409558));
#1195=CARTESIAN_POINT('',(0.1465,0.0158,0.0340967740409558));
#1196=CARTESIAN_POINT('',(0.1595,0.0158,0.0340967740409558));
#1197=CARTESIAN_POINT('',(0.1465,0.0158,-4.84070455677337E-17));
#1198=CARTESIAN_POINT('',(-3.21434055842764E-18,0.0158,-0.005));
#1199=CARTESIAN_POINT('',(0.0796,0.0158,-0.0050000000000001));
#1200=CARTESIAN_POINT('',(0.0796,0.0158,0.));
#1201=CARTESIAN_POINT('',(0.0796,0.0158,0.03685));
#1202=CARTESIAN_POINT('',(0.,0.0158,0.03685));
#1203=CARTESIAN_POINT('',(-0.0796,0.0158,0.03685));
#1204=CARTESIAN_POINT('',(-0.0796,0.0158,0.));
#1205=CARTESIAN_POINT('',(-0.0796,0.0158,-0.005));
#1206=CARTESIAN_POINT('',(-0.045,0.0158,-0.005));
#1207=CARTESIAN_POINT('',(-0.0845,0.0158,-0.005));
#1208=CARTESIAN_POINT('',(-0.0845,0.0158,0.));
#1209=CARTESIAN_POINT('',(-0.0845,0.0158,0.04));
#1210=CARTESIAN_POINT('',(-0.0745,0.0158,0.04));
#1211=CARTESIAN_POINT('',(-0.0745,0.0158,0.05));
#1212=CARTESIAN_POINT('',(0.1595,0.0158,0.05));
#1213=CARTESIAN_POINT('',(0.1495,0.0158,0.05));
#1214=CARTESIAN_POINT('',(0.1495,0.0158,0.04));
#1215=CARTESIAN_POINT('',(0.1595,0.0158,0.04));
#1216=CARTESIAN_POINT('',(0.1595,0.0158,0.025));
#1217=CARTESIAN_POINT('',(0.,0.,0.));
#1218=CARTESIAN_POINT('',(-3.21434055842764E-18,0.,-0.005));
#1219=CARTESIAN_POINT('',(0.000945417731599222,0.,-0.005));
#1220=CARTESIAN_POINT('',(-0.0845,0.,-0.005));
#1221=CARTESIAN_POINT('',(0.000945417731599225,0.,-6.07778911867204E-19));
#1222=CARTESIAN_POINT('',(0.000945417731599223,2.22925380828964E-17,-0.00125000000000005));
#1223=CARTESIAN_POINT('',(0.0379454177315992,1.77613449260512E-17,-0.00125000000000007));
#1224=CARTESIAN_POINT('',(0.0749454177315992,0.,-0.0012500000000001));
#1225=CARTESIAN_POINT('',(0.0749454177315992,0.,-0.0050000000000001));
#1226=CARTESIAN_POINT('',(0.0749454177315992,0.,-0.0050000000000001));
#1227=CARTESIAN_POINT('',(-3.21434055842764E-18,0.,-0.005));
#1228=CARTESIAN_POINT('',(0.1465,0.,0.0340967740409558));
#1229=CARTESIAN_POINT('',(0.1465,0.,0.0340967740409558));
#1230=CARTESIAN_POINT('',(0.1495,0.,0.0340967740409558));
#1231=CARTESIAN_POINT('',(0.1595,0.,0.0340967740409558));
#1232=CARTESIAN_POINT('',(0.1595,0.,0.025));
#1233=CARTESIAN_POINT('',(0.1595,0.,0.04));
#1234=CARTESIAN_POINT('',(0.1495,0.,0.04));
#1235=CARTESIAN_POINT('',(0.1495,0.,0.05));
#1236=CARTESIAN_POINT('',(0.1595,0.,0.05));
#1237=CARTESIAN_POINT('',(-0.0745,0.,0.05));
#1238=CARTESIAN_POINT('',(-0.0745,0.,0.04));
#1239=CARTESIAN_POINT('',(-0.0845,0.,0.04));
#1240=CARTESIAN_POINT('',(-0.0845,0.,0.));
#1241=CARTESIAN_POINT('',(0.0796,0.0141,0.));
#1242=CARTESIAN_POINT('',(0.0796,0.0141,-0.0050000000000001));
#1243=CARTESIAN_POINT('',(0.0796,0.0141,0.03685));
#1244=CARTESIAN_POINT('',(0.00394541773159922,-0.00475,-0.00875));
#1245=CARTESIAN_POINT('',(0.00394541773159922,-0.00475,-0.005));
#1246=CARTESIAN_POINT('',(0.00394541773159923,-0.003,-0.005));
#1247=CARTESIAN_POINT('',(0.00394541773159922,-0.0065,-0.005));
#1248=CARTESIAN_POINT('',(0.00394541773159922,-0.0065,-0.00875));
#1249=CARTESIAN_POINT('',(0.00394541773159923,-0.0065,-0.00125000000000005));
#1250=CARTESIAN_POINT('',(0.00394541773159923,-0.00475,-0.00125000000000005));
#1251=CARTESIAN_POINT('',(0.00394541773159923,-0.003,-0.00125000000000005));
#1252=CARTESIAN_POINT('',(0.00394541773159922,-0.003,-0.00875));
#1253=CARTESIAN_POINT('',(0.0719454177315992,-0.00475,-0.0087500000000001));
#1254=CARTESIAN_POINT('',(0.0719454177315992,-0.00475,-0.00125000000000009));
#1255=CARTESIAN_POINT('',(0.0719454177315992,-0.003,-0.00125000000000009));
#1256=CARTESIAN_POINT('',(0.0719454177315992,-0.0065,-0.00125000000000009));
#1257=CARTESIAN_POINT('',(0.0719454177315992,-0.0065,-0.00500000000000007));
#1258=CARTESIAN_POINT('',(0.0719454177315992,-0.0065,-0.0050000000000001));
#1259=CARTESIAN_POINT('',(0.0719454177315992,-0.00475,-0.0050000000000001));
#1260=CARTESIAN_POINT('',(0.0719454177315992,-0.003,-0.0050000000000001));
#1261=CARTESIAN_POINT('',(0.0719454177315992,-0.003,-0.00125000000000009));
#1262=CARTESIAN_POINT('',(0.0374454177315992,-0.005,-0.00875));
#1263=CARTESIAN_POINT('',(0.0374454177315992,-0.005,-0.00125000000000007));
#1264=CARTESIAN_POINT('',(0.0346954177315992,-0.005,-0.00125000000000007));
#1265=CARTESIAN_POINT('',(0.0374454177315992,-0.005,-0.00500000000000007));
#1266=CARTESIAN_POINT('',(0.0346954177315992,-0.005,-0.00500000000000007));
#1267=CARTESIAN_POINT('',(0.0124454177315992,-0.005,-0.00875));
#1268=CARTESIAN_POINT('',(0.0124454177315992,-0.005,-0.00125000000000006));
#1269=CARTESIAN_POINT('',(0.00969541773159922,-0.005,-0.00125000000000005));
#1270=CARTESIAN_POINT('',(0.0124454177315992,-0.005,-0.00500000000000006));
#1271=CARTESIAN_POINT('',(0.00969541773159922,-0.005,-0.00500000000000006));
#1272=CARTESIAN_POINT('',(0.0379454177315992,-0.0095,-0.00875));
#1273=CARTESIAN_POINT('',(0.0379454177315992,-0.0095,-0.00125000000000007));
#1274=CARTESIAN_POINT('',(0.00694541773159923,-0.0095,-0.00125000000000005));
#1275=CARTESIAN_POINT('',(0.0689454177315992,-0.0095,-0.00125000000000009));
#1276=CARTESIAN_POINT('',(0.00694541773159922,-0.0095,-0.00875));
#1277=CARTESIAN_POINT('',(0.00694541773159922,-0.0095,-0.005));
#1278=CARTESIAN_POINT('',(0.0379454177315992,-0.0095,-0.00500000000000007));
#1279=CARTESIAN_POINT('',(0.0689454177315992,-0.0095,-0.00500000000000009));
#1280=CARTESIAN_POINT('',(0.0689454177315992,-0.0095,-0.00125000000000009));
#1281=CARTESIAN_POINT('',(0.0624454177315992,-0.005,-0.00875));
#1282=CARTESIAN_POINT('',(0.0624454177315992,-0.005,-0.00125000000000009));
#1283=CARTESIAN_POINT('',(0.0596954177315992,-0.005,-0.00125000000000009));
#1284=CARTESIAN_POINT('',(0.0624454177315992,-0.005,-0.00500000000000009));
#1285=CARTESIAN_POINT('',(0.0596954177315992,-0.005,-0.00500000000000009));
#1286=CARTESIAN_POINT('',(-0.0845,0.0158,0.));
#1287=CARTESIAN_POINT('',(-0.0845,0.0158,0.04));
#1288=CARTESIAN_POINT('',(-0.0845,0.0158,-0.005));
#1289=CARTESIAN_POINT('',(-0.0796,0.0141,0.));
#1290=CARTESIAN_POINT('',(-0.0796,0.0141,-0.005));
#1291=CARTESIAN_POINT('',(-0.0796,0.0141,0.03685));
#1292=CARTESIAN_POINT('',(0.,0.0141,0.03685));
#1293=CARTESIAN_POINT('',(-0.045,-0.0092,-0.005));
#1294=CARTESIAN_POINT('',(0.00694541773159922,-0.0065,-0.005));
#1295=CARTESIAN_POINT('',(0.000945417731599222,-0.003,-0.005));
#1296=CARTESIAN_POINT('',(0.0749454177315992,-0.003,-0.0050000000000001));
#1297=CARTESIAN_POINT('',(0.0689454177315992,-0.0065,-0.00500000000000009));
#1298=CARTESIAN_POINT('',(-0.00627729113420041,0.00315,-0.00125000000000004));
#1299=CARTESIAN_POINT('',(0.00694541773159922,-0.0065,-0.00125000000000005));
#1300=CARTESIAN_POINT('',(0.0689454177315992,-0.0065,-0.00125000000000009));
#1301=CARTESIAN_POINT('',(0.0749454177315992,-0.003,-0.0012500000000001));
#1302=CARTESIAN_POINT('',(0.000945417731599224,-0.003,-0.00125000000000005));
#1303=CARTESIAN_POINT('',(0.1595,0.0079,0.05));
#1304=CARTESIAN_POINT('',(0.1495,0.0158,0.05));
#1305=CARTESIAN_POINT('',(-0.0745,0.0079,0.05));
#1306=CARTESIAN_POINT('',(0.1595,0.0079,0.0065));
#1307=CARTESIAN_POINT('',(0.1595,0.,0.04));
#1308=CARTESIAN_POINT('',(0.1595,0.0079,-2.77555756156289E-17));
#1309=CARTESIAN_POINT('',(0.1595,0.0255776695296637,-0.0176776695296637));
#1310=CARTESIAN_POINT('',(0.1595,0.0255776695296637,-0.0209776695296637));
#1311=CARTESIAN_POINT('',(0.1595,-0.0097776695296637,-0.0176776695296637));
#1312=CARTESIAN_POINT('',(0.1595,-0.0097776695296637,-0.0209776695296637));
#1313=CARTESIAN_POINT('',(0.1595,-0.00977766952966369,0.0176776695296636));
#1314=CARTESIAN_POINT('',(0.1595,-0.00977766952966369,0.0143776695296636));
#1315=CARTESIAN_POINT('',(0.1595,0.0255776695296637,0.0176776695296636));
#1316=CARTESIAN_POINT('',(0.1595,0.0255776695296637,0.0143776695296636));
#1317=CARTESIAN_POINT('',(0.1495,-0.00977766952966369,0.0176776695296636));
#1318=CARTESIAN_POINT('',(0.1495,-0.00977766952966369,0.0176776695296636));
#1319=CARTESIAN_POINT('',(0.1495,-0.00977766952966369,0.0143776695296636));
#1320=CARTESIAN_POINT('',(0.1495,-0.0097776695296637,-0.0176776695296637));
#1321=CARTESIAN_POINT('',(0.1495,-0.0097776695296637,-0.0176776695296637));
#1322=CARTESIAN_POINT('',(0.1495,-0.0097776695296637,-0.0209776695296637));
#1323=CARTESIAN_POINT('',(0.1495,0.0255776695296637,-0.0176776695296637));
#1324=CARTESIAN_POINT('',(0.1495,0.0255776695296637,-0.0176776695296637));
#1325=CARTESIAN_POINT('',(0.1495,0.0255776695296637,-0.0209776695296637));
#1326=CARTESIAN_POINT('',(0.1495,0.0079,-2.44513404232921E-17));
#1327=CARTESIAN_POINT('',(0.1465,0.,0.0340967740409558));
#1328=CARTESIAN_POINT('',(0.147308548253617,2.36856116759803E-18,0.0340967740409558));
#1329=CARTESIAN_POINT('',(0.148884908585956,-0.000688196563344538,0.0339462832669341));
#1330=CARTESIAN_POINT('',(0.1495,-0.00223244207776143,0.033510983865916));
#1331=CARTESIAN_POINT('',(0.1495,-0.003,0.0332594347516611));
#1332=CARTESIAN_POINT('',(0.1495,-0.003,0.0332594347516611));
#1333=CARTESIAN_POINT('',(0.1495,0.0079,-2.44513404232921E-17));
#1334=CARTESIAN_POINT('',(0.1495,0.0188,0.0332594347516611));
#1335=CARTESIAN_POINT('',(0.1495,0.0188,0.0332594347516611));
#1336=CARTESIAN_POINT('',(0.1495,0.0180320893013931,0.0335110994801002));
#1337=CARTESIAN_POINT('',(0.148888120903673,0.0164919378842467,0.0339452990362626));
#1338=CARTESIAN_POINT('',(0.147309092099419,0.0158,0.0340967740409558));
#1339=CARTESIAN_POINT('',(0.1465,0.0158,0.0340967740409558));
#1340=CARTESIAN_POINT('',(0.1495,0.0255776695296637,0.0176776695296636));
#1341=CARTESIAN_POINT('',(0.1495,0.0255776695296637,0.0176776695296636));
#1342=CARTESIAN_POINT('',(0.1495,0.0255776695296637,0.0143776695296636));
#1343=CARTESIAN_POINT('',(0.1495,0.0079,0.0075));
#1344=CARTESIAN_POINT('',(0.1495,0.0079,-0.003));
#1345=CARTESIAN_POINT('',(0.1495,-0.003,-0.003));
#1346=CARTESIAN_POINT('',(0.1495,0.0188,-0.003));
#1347=CARTESIAN_POINT('',(0.1495,0.0188,0.0075));
#1348=CARTESIAN_POINT('',(0.1495,-0.003,-2.52773992213763E-17));
#1349=CARTESIAN_POINT('',(-0.0845,0.0158,0.037));
#1350=CARTESIAN_POINT('',(-0.0745,0.0079,0.04));
#1351=CARTESIAN_POINT('',(0.1495,0.0079,0.04));
#1352=CARTESIAN_POINT('',(0.1465,-0.003,0.0075));
#1353=CARTESIAN_POINT('',(0.1465,-0.003,-0.003));
#1354=CARTESIAN_POINT('',(0.1465,0.0079,-0.003));
#1355=CARTESIAN_POINT('',(0.1465,0.0188,-0.003));
#1356=CARTESIAN_POINT('',(0.1465,0.0188,-4.84070455677337E-17));
#1357=CARTESIAN_POINT('',(0.00694541773159922,-0.0065,-0.00875));
#1358=CARTESIAN_POINT('',(0.0689454177315992,-0.0065,-0.00875));
#1359=CARTESIAN_POINT('',(0.000945417731599225,-0.003,-6.07778911867204E-19));
#1360=CARTESIAN_POINT('',(0.0749454177315992,-0.003,-0.0087500000000001));
#1361=MECHANICAL_DESIGN_GEOMETRIC_PRESENTATION_REPRESENTATION('',(#806),
#1362);
#1362=(
GEOMETRIC_REPRESENTATION_CONTEXT(3)
GLOBAL_UNCERTAINTY_ASSIGNED_CONTEXT((#1363))
GLOBAL_UNIT_ASSIGNED_CONTEXT((#1366,#1365,#1364))
REPRESENTATION_CONTEXT('Part 1','TOP_LEVEL_ASSEMBLY_PART')
);
#1363=UNCERTAINTY_MEASURE_WITH_UNIT(LENGTH_MEASURE(2.E-5),#1366,
'DISTANCE_ACCURACY_VALUE','Maximum Tolerance applied to model');
#1364=(
NAMED_UNIT(*)
SI_UNIT($,.STERADIAN.)
SOLID_ANGLE_UNIT()
);
#1365=(
NAMED_UNIT(*)
PLANE_ANGLE_UNIT()
SI_UNIT($,.RADIAN.)
);
#1366=(
LENGTH_UNIT()
NAMED_UNIT(*)
SI_UNIT($,.METRE.)
);
#1367=PRODUCT_DEFINITION_SHAPE('','',#1368);
#1368=PRODUCT_DEFINITION('','',#1370,#1369);
#1369=PRODUCT_DEFINITION_CONTEXT('',#1376,'design');
#1370=PRODUCT_DEFINITION_FORMATION_WITH_SPECIFIED_SOURCE('','',#1372,
 .NOT_KNOWN.);
#1371=PRODUCT_RELATED_PRODUCT_CATEGORY('','',(#1372));
#1372=PRODUCT('Part 1','Part 1','Part 1',(#1374));
#1373=PRODUCT_CATEGORY('','');
#1374=PRODUCT_CONTEXT('',#1376,'mechanical');
#1375=APPLICATION_PROTOCOL_DEFINITION('international standard',
'ap242_managed_model_based_3d_engineering',2020,#1376);
#1376=APPLICATION_CONTEXT('managed model based 3d engineering');
ENDSEC;
END-ISO-10303-21;
